<svg width="102" height="86" viewBox="0 0 102 86" fill="none" xmlns="http://www.w3.org/2000/svg">
<path d="M24.6532 58L1.5 0H11.5161L28.8629 43.9L46.2097 0H56.2258L32.9274 58H24.6532Z" fill="#6EA8FF"/>
<path d="M68.9274 58L45.7742 0H55.7903L73.1371 43.9L90.4839 0H100.5L77.2016 58H68.9274Z" fill="#C4DCFF"/>
<path d="M4.208 82L0.56 72.72H1.968L4.784 79.632L7.776 72.72H9.504L12.688 79.616L15.312 72.72H16.736L13.232 82H12.096L8.64 74.336L5.36 82H4.208ZM19.377 82C19.025 82 18.6997 81.9147 18.401 81.744C18.113 81.5627 17.8783 81.328 17.697 81.04C17.5263 80.7413 17.441 80.416 17.441 80.064V74.656C17.441 74.304 17.5263 73.984 17.697 73.696C17.8783 73.3973 18.113 73.1627 18.401 72.992C18.6997 72.8107 19.025 72.72 19.377 72.72H24.945C25.3077 72.72 25.633 72.8107 25.921 72.992C26.2197 73.1627 26.4543 73.3973 26.625 73.696C26.8063 73.984 26.897 74.304 26.897 74.656V78.016H18.753V80.064C18.753 80.2347 18.8117 80.384 18.929 80.512C19.057 80.6293 19.2063 80.688 19.377 80.688H26.897V82H19.377ZM18.753 76.704H25.569V74.656C25.569 74.4853 25.505 74.3413 25.377 74.224C25.2597 74.096 25.1157 74.032 24.945 74.032H19.377C19.2063 74.032 19.057 74.096 18.929 74.224C18.8117 74.3413 18.753 74.4853 18.753 74.656V76.704ZM30.4711 82C30.1191 82 29.7938 81.9147 29.4951 81.744C29.2071 81.5627 28.9725 81.328 28.7911 81.04C28.6205 80.7413 28.5351 80.416 28.5351 80.064V76.704H36.6631V74.656C36.6631 74.4853 36.5991 74.3413 36.4711 74.224C36.3538 74.096 36.2098 74.032 36.0391 74.032H28.5351V72.72H36.0391C36.4018 72.72 36.7271 72.8107 37.0151 72.992C37.3138 73.1627 37.5485 73.3973 37.7191 73.696C37.9005 73.984 37.9911 74.304 37.9911 74.656V82H30.4711ZM30.4711 80.688H36.6631V78.016H29.8471V80.064C29.8471 80.2347 29.9058 80.384 30.0231 80.512C30.1511 80.6293 30.3005 80.688 30.4711 80.688ZM41.4243 82C41.0723 82 40.7469 81.9147 40.4483 81.744C40.1603 81.5627 39.9256 81.328 39.7443 81.04C39.5736 80.7413 39.4883 80.416 39.4883 80.064V69.68H40.8003V80.064C40.8003 80.2347 40.8589 80.384 40.9763 80.512C41.1043 80.6293 41.2536 80.688 41.4243 80.688H42.9923V82H41.4243ZM46.2684 82C45.9057 82 45.575 81.9147 45.2764 81.744C44.9884 81.5627 44.759 81.328 44.5884 81.04C44.4177 80.7413 44.3324 80.416 44.3324 80.064V69.68H45.6444V72.72H49.6604V74.032H45.6444V80.064C45.6444 80.2347 45.703 80.384 45.8204 80.512C45.9484 80.6293 46.0977 80.688 46.2684 80.688H49.6604V82H46.2684ZM50.989 82V69.68H52.301V72.72H58.509C58.861 72.72 59.181 72.8107 59.469 72.992C59.7677 73.1627 60.0023 73.3973 60.173 73.696C60.3543 73.984 60.445 74.304 60.445 74.656V82H59.133V74.656C59.133 74.4853 59.069 74.3413 58.941 74.224C58.8237 74.096 58.6797 74.032 58.509 74.032H52.941C52.7703 74.032 52.621 74.096 52.493 74.224C52.365 74.3413 52.301 74.4853 52.301 74.656V82H50.989Z" fill="#6EA8FF"/>
<path d="M66.2685 82L61.1485 72.72H62.6845L67.0365 80.72L71.3885 72.72H72.9245L67.7885 82H66.2685ZM75.7208 82C75.3688 82 75.0434 81.9147 74.7448 81.744C74.4568 81.5627 74.2221 81.328 74.0408 81.04C73.8701 80.7413 73.7848 80.416 73.7848 80.064V74.656C73.7848 74.304 73.8701 73.984 74.0408 73.696C74.2221 73.3973 74.4568 73.1627 74.7448 72.992C75.0434 72.8107 75.3688 72.72 75.7208 72.72H81.2888C81.6514 72.72 81.9768 72.8107 82.2648 72.992C82.5634 73.1627 82.7981 73.3973 82.9688 73.696C83.1501 73.984 83.2408 74.304 83.2408 74.656V78.016H75.0968V80.064C75.0968 80.2347 75.1554 80.384 75.2728 80.512C75.4008 80.6293 75.5501 80.688 75.7208 80.688H83.2408V82H75.7208ZM75.0968 76.704H81.9128V74.656C81.9128 74.4853 81.8488 74.3413 81.7208 74.224C81.6034 74.096 81.4594 74.032 81.2888 74.032H75.7208C75.5501 74.032 75.4008 74.096 75.2728 74.224C75.1554 74.3413 75.0968 74.4853 75.0968 74.656V76.704ZM86.7509 82C86.3989 82 86.0735 81.9147 85.7749 81.744C85.4869 81.5627 85.2522 81.328 85.0709 81.04C84.9002 80.7413 84.8149 80.416 84.8149 80.064V79.936H86.1269V80.064C86.1269 80.2347 86.1855 80.384 86.3029 80.512C86.4309 80.6293 86.5802 80.688 86.7509 80.688H92.3189C92.4895 80.688 92.6335 80.6293 92.7509 80.512C92.8789 80.384 92.9429 80.2347 92.9429 80.064V78.64C92.9429 78.4693 92.8789 78.3253 92.7509 78.208C92.6335 78.08 92.4895 78.016 92.3189 78.016H86.7509C86.3989 78.016 86.0735 77.9307 85.7749 77.76C85.4869 77.5787 85.2522 77.344 85.0709 77.056C84.9002 76.7573 84.8149 76.432 84.8149 76.08V74.656C84.8149 74.304 84.9002 73.984 85.0709 73.696C85.2522 73.3973 85.4869 73.1627 85.7749 72.992C86.0735 72.8107 86.3989 72.72 86.7509 72.72H92.3189C92.6815 72.72 93.0069 72.8107 93.2949 72.992C93.5935 73.1627 93.8282 73.3973 93.9989 73.696C94.1802 73.984 94.2709 74.304 94.2709 74.656V74.784H92.9429V74.656C92.9429 74.4853 92.8789 74.3413 92.7509 74.224C92.6335 74.096 92.4895 74.032 92.3189 74.032H86.7509C86.5802 74.032 86.4309 74.096 86.3029 74.224C86.1855 74.3413 86.1269 74.4853 86.1269 74.656V76.08C86.1269 76.2507 86.1855 76.4 86.3029 76.528C86.4309 76.6453 86.5802 76.704 86.7509 76.704H92.3189C92.6815 76.704 93.0069 76.7947 93.2949 76.976C93.5935 77.1467 93.8282 77.3813 93.9989 77.68C94.1802 77.968 94.2709 78.288 94.2709 78.64V80.064C94.2709 80.416 94.1802 80.7413 93.9989 81.04C93.8282 81.328 93.5935 81.5627 93.2949 81.744C93.0069 81.9147 92.6815 82 92.3189 82H86.7509ZM97.7996 82C97.437 82 97.1063 81.9147 96.8076 81.744C96.5196 81.5627 96.2903 81.328 96.1196 81.04C95.949 80.7413 95.8636 80.416 95.8636 80.064V69.68H97.1756V72.72H101.192V74.032H97.1756V80.064C97.1756 80.2347 97.2343 80.384 97.3516 80.512C97.4796 80.6293 97.629 80.688 97.7996 80.688H101.192V82H97.7996Z" fill="#C4DCFF"/>
</svg>
